<svg width="127" height="22" viewBox="0 0 127 22" fill="none" xmlns="http://www.w3.org/2000/svg">
<g clip-path="url(#clip0_123_11502)">
<path d="M6.85946 0.555389H-8.35784C-10.0387 0.555389 -11.4013 1.91799 -11.4013 3.59885V18.8162C-11.4013 20.497 -10.0387 21.8596 -8.35784 21.8596H6.85946C8.54032 21.8596 9.90292 20.497 9.90292 18.8162V3.59885C9.90292 1.91799 8.54032 0.555389 6.85946 0.555389Z" fill="#1E4DFF"/>
<path opacity="0.45" d="M5.27908 18.4357L0.675842 14.7561V9.07248L5.27908 12.752V18.4357Z" fill="white"/>
<path opacity="0.65" d="M-0.788025 14.0272L4.89564 9.66288V3.97922L-0.788025 8.34354V14.0272Z" fill="white"/>
<path opacity="0.4" d="M0.913025 12.7184L3.23975 10.9319L0.957155 9.10431L0.913025 12.7184Z" fill="white"/>
<path opacity="0.2" d="M-0.788025 11.7293L4.89564 7.36497V6.71823L-0.788025 11.081V11.7293Z" fill="white"/>
<path d="M19.5641 17.0235L18.3695 19.9772H14.8284L21.4312 4.77209H24.9692L31.464 19.9772H27.7951L26.6005 17.0235H19.5641ZM23.1036 8.35729L20.6932 14.2646H25.4927L23.1036 8.35729Z" fill="#1F2542"/>
<path d="M43.9978 19.9771H40.6743V18.2606C39.848 19.4552 38.588 20.108 36.9811 20.108C33.6576 20.108 31.4648 17.6961 31.4648 14.0911C31.4648 10.5287 33.6363 8.15635 36.8943 8.15635C38.5454 8.15635 39.8267 8.80765 40.6743 10.0022V3.8605H43.9978V19.9771ZM39.953 14.1778C39.953 12.2665 38.7584 10.9411 37.0419 10.9411C35.3254 10.9411 34.1095 12.2878 34.0882 14.1778C34.1095 16.0891 35.2828 17.4146 37.0419 17.4146C38.7584 17.4146 39.953 16.0891 39.953 14.1778Z" fill="#1F2542"/>
<path d="M55.8572 9.44254L54.7052 11.7251C53.4224 11.0069 52.1198 10.5991 51.1398 10.5991C50.3577 10.5991 49.7931 10.8593 49.7931 11.468C49.7931 13.2271 55.9607 12.3369 55.9394 16.4638C55.9394 18.8529 53.8333 20.116 51.1824 20.116C49.2924 20.116 47.4466 19.5514 46.1212 18.4862L47.2077 16.2279C48.4251 17.1608 49.9879 17.6827 51.2692 17.6827C52.1168 17.6827 52.7468 17.3997 52.7468 16.7697C52.7468 14.9025 46.6857 15.9023 46.6857 11.7967C46.6857 9.38471 48.7492 8.1445 51.2905 8.1445C52.9035 8.14638 54.4843 8.59572 55.8572 9.44254Z" fill="#1F2542"/>
<path d="M64.6979 4.77209C68.5646 4.77209 70.7849 6.68339 70.7849 10.051C70.7849 13.592 68.5692 15.6327 64.6979 15.6327H61.6788V19.9772H58.2473V4.77209H64.6979ZM61.6788 12.7657H64.5245C66.4357 12.7657 67.5223 11.8968 67.5223 10.159C67.5223 8.46534 66.4357 7.61773 64.5245 7.61773H61.6788V12.7657Z" fill="#1F2542"/>
<path d="M84.4422 14.1338C84.4422 17.6962 81.9222 20.1081 78.1864 20.1081C74.4505 20.1081 71.9092 17.6962 71.9092 14.1338C71.9092 10.5715 74.4247 8.18234 78.1864 8.18234C81.9481 8.18234 84.4422 10.5502 84.4422 14.1338ZM75.2753 14.178C75.2753 16.0893 76.4486 17.3919 78.1864 17.3919C79.9242 17.3919 81.0974 16.0893 81.0974 14.178C81.0974 12.2667 79.9029 10.9625 78.1864 10.9625C76.4699 10.9625 75.2753 12.2728 75.2753 14.178Z" fill="#1F2542"/>
<path d="M97.2329 19.9772L94.7129 12.2727L92.2157 19.9833H88.8786L84.5919 8.3162L88.0021 8.29489L90.6088 16.6644L93.1272 8.3025H96.4081L98.9707 16.672L101.533 8.31011H104.835L100.575 19.9955L97.2329 19.9772Z" fill="#1F2542"/>
<path d="M116.676 15.1548H108.291C108.682 16.6324 109.813 17.5013 111.31 17.5013C111.86 17.5012 112.405 17.3916 112.912 17.179C113.419 16.9663 113.879 16.6548 114.265 16.2627L116.024 18.0446C114.851 19.3472 113.133 20.1081 111.029 20.1081C107.293 20.1081 104.925 17.719 104.925 14.1733C104.925 10.5668 107.379 8.1777 110.942 8.1777C115.055 8.18227 116.959 10.9031 116.676 15.1548ZM113.549 13.1857C113.504 11.6442 112.505 10.6444 110.962 10.6444C109.484 10.6444 108.486 11.6442 108.222 13.1857H113.549Z" fill="#1F2542"/>
<path d="M122.235 10.398C123.039 8.96458 124.366 8.18241 126.102 8.1611V11.3111C123.711 11.0935 122.235 12.3763 122.235 14.3545V19.9849H118.888V8.29197H122.235V10.398Z" fill="#1F2542"/>
</g>
<defs>
<clipPath id="clip0_123_11502">
<rect width="137.504" height="21.3042" fill="white" transform="translate(-11.4022 0.555603)"/>
</clipPath>
</defs>
</svg>
