<svg width="167" height="28" viewBox="0 0 167 28" fill="none" xmlns="http://www.w3.org/2000/svg">
<path d="M39.0917 6.44H43.863C46.1447 6.44 47.8734 7.01742 49.0489 8.17092C50.2242 9.32548 50.8121 10.9736 50.8121 13.1154V14.2762C50.8121 16.3909 50.2174 18.0327 49.0278 19.2002C47.8383 20.3682 46.1167 20.9521 43.8627 20.9521H39.0917V6.44ZM41.581 8.63734V18.7543H43.863C45.3011 18.7543 46.3832 18.388 47.1092 17.6558C47.8356 16.9231 48.1981 15.7968 48.1981 14.2762V13.1154C48.1981 11.6096 47.8317 10.4863 47.0988 9.74648C46.3659 9.00774 45.2868 8.63734 43.8627 8.63734H41.581Z" fill="#28334A"/>
<path d="M57.4457 21.1387C55.8828 21.1387 54.6626 20.6963 53.7845 19.8119C52.906 18.9274 52.4674 17.6901 52.4674 16.1008V15.4371C52.4674 14.6494 52.5815 13.9449 52.8095 13.3225C53.0376 12.7007 53.3697 12.172 53.8052 11.7368C54.2408 11.3016 54.7629 10.9698 55.3713 10.7416C55.9796 10.5137 56.6711 10.3992 57.4457 10.3992C59.0084 10.3992 60.2287 10.8421 61.1071 11.7261C61.9853 12.6106 62.4246 13.8479 62.4246 15.4371V16.1008C62.4246 16.8886 62.3107 17.5931 62.0823 18.2155C61.854 18.8373 61.5224 19.3659 61.0866 19.8012C60.6508 20.2364 60.1251 20.5682 59.5098 20.7963C58.8945 21.024 58.2062 21.1387 57.4457 21.1387ZM57.4457 18.8992C58.2339 18.8992 58.8391 18.6713 59.2609 18.2152C59.6827 17.7589 59.8938 17.0544 59.8938 16.1006V15.4369C59.8938 14.4973 59.6756 13.7958 59.2404 13.3329C58.8048 12.87 58.2062 12.6385 57.4459 12.6385C56.6576 12.6385 56.0525 12.8664 55.631 13.3225C55.2088 13.7788 54.9984 14.4833 54.9984 15.4371V16.1008C54.9984 17.0404 55.2157 17.7419 55.6515 18.2048C56.0873 18.6677 56.6853 18.8992 57.4457 18.8992Z" fill="#28334A"/>
<path d="M65.379 20.0713C64.7912 19.4837 64.4973 18.6375 64.4973 17.5314V6.44H66.9035V17.2828C66.9035 17.8213 67.0211 18.2157 67.2563 18.4644C67.4914 18.7132 67.8508 18.8378 68.3351 18.8378H68.8536V20.9524H67.8992C66.8067 20.9521 65.9667 20.6582 65.379 20.0713Z" fill="#28334A"/>
<path d="M75.8469 21.1388C74.5466 21.1388 73.5372 20.7307 72.818 19.9152V25.0983H70.4118V10.5858H72.2994L72.5277 11.996C72.8871 11.4569 73.347 11.0559 73.9069 10.793C74.4671 10.5308 75.1134 10.399 75.8469 10.399C76.4414 10.399 76.9912 10.5064 77.4964 10.7204C78.0009 10.9354 78.4323 11.2531 78.7922 11.6741C79.1521 12.0963 79.4352 12.6214 79.6429 13.2503C79.8498 13.8792 79.9541 14.6078 79.9541 15.4369V16.1006C79.9541 16.9298 79.8498 17.6554 79.6429 18.2774C79.4352 18.8992 79.1483 19.4249 78.7816 19.8531C78.4156 20.2818 77.9834 20.603 77.485 20.8167C76.9874 21.0312 76.4414 21.1388 75.8469 21.1388ZM75.1206 18.8992C75.8532 18.8992 76.4205 18.6785 76.8215 18.2361C77.2225 17.7938 77.4234 17.0821 77.4234 16.1006V15.4369C77.4234 14.4832 77.2157 13.7787 76.801 13.3223C76.3863 12.8665 75.8264 12.6383 75.1208 12.6383C74.4573 12.6383 73.9143 12.8662 73.4922 13.3223C73.0704 13.7787 72.8457 14.4421 72.818 15.3129V16.1006C72.818 17.0126 73.0361 17.7069 73.4714 18.1841C73.9069 18.6609 74.457 18.8992 75.1206 18.8992Z" fill="#28334A"/>
<path d="M82.0254 6.44H84.4321V11.4779C85.1229 10.7591 86.0839 10.3995 87.315 10.3995C88.5872 10.3995 89.5794 10.7761 90.2916 11.5297C91.0038 12.2832 91.3599 13.4194 91.3599 14.94V20.9521H88.954V14.94C88.954 14.1798 88.7706 13.606 88.4039 13.2192C88.0371 12.8324 87.5365 12.6387 86.9004 12.6387C86.1532 12.6387 85.562 12.839 85.1267 13.24C84.6908 13.6411 84.4587 14.173 84.4321 14.8361V20.9521H82.0254V6.44Z" fill="#28334A"/>
<path d="M95.2668 9.34238C94.8239 9.34238 94.4541 9.19416 94.1566 8.89643C93.8591 8.59953 93.7108 8.22974 93.7108 7.78737C93.7108 7.34495 93.8591 6.97544 94.1566 6.67824C94.4541 6.38131 94.8239 6.2323 95.2668 6.2323C95.6951 6.2323 96.0619 6.38104 96.3662 6.67824C96.6698 6.97516 96.822 7.34495 96.822 7.78737C96.822 8.22974 96.6698 8.59923 96.3662 8.89643C96.0619 9.19416 95.6951 9.34238 95.2668 9.34238ZM94.0638 10.586H96.4697V20.9521H94.0638V10.586Z" fill="#28334A"/>
<path d="M99.2698 10.5858H101.158L101.344 11.7467C102.118 10.8486 103.19 10.399 104.559 10.399C105.831 10.399 106.824 10.7757 107.536 11.5293C108.248 12.2828 108.604 13.419 108.604 14.9395V20.952H106.198V14.9398C106.198 14.1796 106.014 13.6058 105.647 13.219C105.282 12.8323 104.78 12.6386 104.145 12.6386C103.398 12.6386 102.806 12.8388 102.37 13.2399C101.934 13.6409 101.703 14.1728 101.676 14.836V20.952H99.2698V10.5858Z" fill="#28334A"/>
<path d="M117.312 7.76716H116.357C114.78 7.76716 113.992 8.5963 113.992 10.2551V12.9497C113.992 13.572 113.899 14.1283 113.712 14.6186C113.526 15.1101 113.114 15.4932 112.478 15.7697C112.796 15.9219 113.055 16.0945 113.256 16.2881C113.456 16.4819 113.612 16.699 113.722 16.9407C113.833 17.1828 113.905 17.4419 113.94 17.7183C113.975 17.9946 113.992 18.2853 113.992 18.5888V21.2839C113.992 22.9427 114.78 23.7719 116.357 23.7719H117.312V25.0987H116.357C113.813 25.0987 112.54 23.8266 112.54 21.2839V18.5885C112.54 17.8563 112.378 17.3276 112.053 17.0028C111.728 16.6779 111.337 16.4812 110.881 16.4117V15.1267C111.337 15.0577 111.728 14.8605 112.053 14.5357C112.378 14.2108 112.54 13.6824 112.54 12.9494V10.2549C112.54 7.71208 113.813 6.44 116.357 6.44H117.312V7.76716Z" fill="#28334A"/>
<path d="M122.397 21.097C121.36 21.097 120.564 20.8313 120.011 20.299C119.458 19.7671 119.181 19.0311 119.181 18.091C119.181 17.5932 119.261 17.1407 119.42 16.7326C119.579 16.325 119.835 15.9832 120.188 15.7068C120.54 15.4304 120.993 15.2159 121.547 15.0636C122.099 14.9119 122.764 14.8357 123.538 14.8357H125.903V13.9028C125.903 13.1569 125.719 12.6072 125.354 12.2546C124.986 11.9026 124.381 11.7259 123.538 11.7259C122.777 11.7259 122.207 11.8747 121.826 12.1719C121.447 12.4696 121.228 12.8734 121.173 13.3848H119.7C119.728 12.9561 119.825 12.5627 119.99 12.2032C120.156 11.8435 120.398 11.5328 120.717 11.2702C121.035 11.0075 121.429 10.8037 121.899 10.6585C122.369 10.5138 122.915 10.4413 123.538 10.4413C124.769 10.4413 125.698 10.7453 126.328 11.3532C126.957 11.9615 127.272 12.8118 127.272 13.903V20.9521H126.213L126.006 19.0034C125.647 19.6666 125.153 20.1815 124.524 20.5477C123.894 20.9137 123.185 21.097 122.397 21.097ZM122.5 19.8117C122.971 19.8117 123.413 19.7255 123.828 19.5526C124.243 19.38 124.606 19.145 124.917 18.8476C125.228 18.5506 125.47 18.2049 125.644 17.811C125.816 17.4172 125.902 16.9991 125.902 16.5568V16.0802H123.538C122.472 16.0802 121.715 16.2667 121.266 16.6395C120.817 17.0128 120.592 17.4968 120.592 18.091C120.592 18.6161 120.754 19.034 121.08 19.3452C121.405 19.6558 121.878 19.8117 122.5 19.8117Z" fill="#28334A"/>
<path d="M130.693 10.5859H131.75L131.916 12.2861C132.263 11.692 132.729 11.2362 133.317 10.9179C133.904 10.6001 134.585 10.4413 135.36 10.4413C136.549 10.4413 137.486 10.8009 138.171 11.5189C138.856 12.2376 139.197 13.3086 139.197 14.7325V20.9521H137.828V14.7328C137.828 13.7242 137.593 12.9707 137.123 12.4727C136.653 11.975 135.996 11.7262 135.152 11.7262C134.24 11.7262 133.504 11.9889 132.944 12.514C132.383 13.0397 132.089 13.7371 132.062 14.6081V20.9521H130.693V10.5859Z" fill="#28334A"/>
<path d="M141.167 10.5864H143.034V7.68454H144.403V10.5864H147.183V11.8305H144.403V18.0501C144.403 19.1556 144.915 19.7084 145.938 19.7084H147.391V20.9525H145.772C144.874 20.9525 144.192 20.721 143.729 20.2581C143.266 19.7952 143.034 19.1143 143.034 18.2161V11.8308H141.167V10.5864Z" fill="#28334A"/>
<path d="M153.344 20.9524L149.049 10.5863H150.585L154.09 19.2522L157.347 10.5863H158.799L153.198 25.0987H151.746L153.344 20.9524Z" fill="#28334A"/>
<path d="M160.124 23.7713H161.078C162.655 23.7713 163.443 22.9422 163.443 21.2834V18.5882C163.443 17.9664 163.536 17.4102 163.723 16.9192C163.909 16.4292 164.321 16.0452 164.957 15.7688C164.638 15.6171 164.38 15.444 164.18 15.2503C163.979 15.0572 163.823 14.8394 163.713 14.5973C163.602 14.3557 163.53 14.0965 163.496 13.8202C163.461 13.5438 163.443 13.254 163.443 12.9491V10.2546C163.443 8.59572 162.655 7.76658 161.078 7.76658H160.124V6.44H161.078C163.623 6.44 164.896 7.71211 164.896 10.2548V12.9494C164.896 13.6821 165.058 14.2113 165.383 14.5362C165.707 14.8605 166.099 15.0577 166.554 15.1268V16.4117C166.099 16.4813 165.707 16.678 165.383 17.0028C165.058 17.3271 164.896 17.856 164.896 18.5885V21.2836C164.896 23.8264 163.623 25.0984 161.078 25.0984H160.124V23.7713Z" fill="#28334A"/>
<path d="M0.554443 13.6958C0.554443 -3.05176e-05 0.554443 -3.05176e-05 14.2587 -3.05176e-05C27.9629 -3.05176e-05 27.9629 -3.05176e-05 27.9629 13.6958C27.9629 27.3917 27.9629 27.3917 14.2587 27.3917C0.554443 27.3917 0.554443 27.3917 0.554443 13.6958Z" fill="url(#paint0_linear_703_152)"/>
<path d="M19.8901 13.1172V14.2835C19.8901 16.3911 19.2937 18.0324 18.1012 19.207C16.9169 20.3733 15.197 20.9524 12.941 20.9524H9.12933C10.1316 20.5204 10.6329 19.5874 10.6329 18.1535V15.9767C10.6329 15.3806 10.7626 14.9572 11.0221 14.6898C11.2902 14.4304 11.6013 14.2748 11.9727 14.2145V13.1783C11.6013 13.1175 11.2902 12.9624 11.0221 12.703C10.7626 12.4351 10.6329 12.0122 10.6329 11.4162V9.23882C10.6329 7.80517 10.1316 6.87218 9.12933 6.44022H12.9407C15.2228 6.44022 16.9514 7.019 18.1267 8.17656C19.3028 9.3248 19.8901 10.9749 19.8901 13.1172Z" fill="white"/>
<defs>
<linearGradient id="paint0_linear_703_152" x1="14.2587" y1="-3.05176e-05" x2="14.2587" y2="27.3917" gradientUnits="userSpaceOnUse">
<stop offset="0.0056" stop-color="#B645EE"/>
<stop offset="1" stop-color="#9B26B6"/>
</linearGradient>
</defs>
</svg>
