<svg width="310" height="272" viewBox="0 0 310 272" fill="none" xmlns="http://www.w3.org/2000/svg">
<path d="M85.1918 151.672C82.0558 151.672 79.3198 151.048 76.9838 149.8C74.6798 148.552 72.8718 146.696 71.5598 144.232C70.2798 141.768 69.6398 138.728 69.6398 135.112C69.6398 131.208 70.3918 127.896 71.8958 125.176C73.4318 122.424 75.5278 120.328 78.1838 118.888C80.8718 117.448 83.9758 116.728 87.4958 116.728C89.3838 116.728 91.1918 116.952 92.9198 117.4C94.6798 117.816 96.1678 118.408 97.3838 119.176L93.9278 125.992C92.9678 125.32 91.9598 124.872 90.9038 124.648C89.8798 124.392 88.8238 124.264 87.7358 124.264C85.1438 124.264 83.0638 125.048 81.4958 126.616C79.9598 128.184 79.1918 130.472 79.1918 133.48C79.1918 134.024 79.1918 134.6 79.1918 135.208C79.2238 135.784 79.2878 136.376 79.3838 136.984L76.9838 135.016C77.6238 133.832 78.3918 132.84 79.2878 132.04C80.2158 131.24 81.3038 130.632 82.5518 130.216C83.8318 129.8 85.2558 129.592 86.8238 129.592C88.9358 129.592 90.8558 130.04 92.5838 130.936C94.3438 131.8 95.7518 133.032 96.8078 134.632C97.8638 136.2 98.3918 138.056 98.3918 140.2C98.3918 142.536 97.7998 144.568 96.6158 146.296C95.4318 147.992 93.8478 149.32 91.8638 150.28C89.8798 151.208 87.6558 151.672 85.1918 151.672ZM84.6158 144.904C85.5118 144.904 86.2958 144.728 86.9678 144.376C87.6718 144.024 88.2158 143.528 88.5998 142.888C88.9838 142.248 89.1758 141.496 89.1758 140.632C89.1758 139.352 88.7438 138.328 87.8798 137.56C87.0478 136.792 85.9438 136.408 84.5678 136.408C83.6398 136.408 82.8238 136.584 82.1198 136.936C81.4478 137.288 80.9038 137.784 80.4878 138.424C80.1038 139.064 79.9118 139.816 79.9118 140.68C79.9118 141.512 80.1038 142.248 80.4878 142.888C80.8718 143.496 81.4158 143.992 82.1198 144.376C82.8238 144.728 83.6558 144.904 84.6158 144.904ZM100.476 144.568V138.376L115.548 117.4H125.388L110.748 138.376L106.236 137.032H132.492V144.568H100.476ZM118.236 151V144.568L118.524 137.032V131.32H127.5V151H118.236ZM149.253 151.672C146.373 151.672 143.813 150.984 141.573 149.608C139.365 148.232 137.621 146.248 136.341 143.656C135.061 141.064 134.421 137.912 134.421 134.2C134.421 130.488 135.061 127.336 136.341 124.744C137.621 122.152 139.365 120.168 141.573 118.792C143.813 117.416 146.373 116.728 149.253 116.728C152.101 116.728 154.629 117.416 156.837 118.792C159.077 120.168 160.837 122.152 162.117 124.744C163.397 127.336 164.037 130.488 164.037 134.2C164.037 137.912 163.397 141.064 162.117 143.656C160.837 146.248 159.077 148.232 156.837 149.608C154.629 150.984 152.101 151.672 149.253 151.672ZM149.253 143.896C150.277 143.896 151.173 143.576 151.941 142.936C152.741 142.296 153.365 141.272 153.813 139.864C154.261 138.424 154.485 136.536 154.485 134.2C154.485 131.832 154.261 129.944 153.813 128.536C153.365 127.128 152.741 126.104 151.941 125.464C151.173 124.824 150.277 124.504 149.253 124.504C148.229 124.504 147.317 124.824 146.517 125.464C145.749 126.104 145.125 127.128 144.645 128.536C144.197 129.944 143.973 131.832 143.973 134.2C143.973 136.536 144.197 138.424 144.645 139.864C145.125 141.272 145.749 142.296 146.517 142.936C147.317 143.576 148.229 143.896 149.253 143.896ZM192.84 151.672C190.184 151.672 187.72 151.256 185.448 150.424C183.176 149.56 181.208 148.344 179.544 146.776C177.912 145.208 176.632 143.368 175.704 141.256C174.776 139.112 174.312 136.76 174.312 134.2C174.312 131.64 174.776 129.304 175.704 127.192C176.632 125.048 177.928 123.192 179.592 121.624C181.256 120.056 183.224 118.856 185.496 118.024C187.8 117.16 190.312 116.728 193.032 116.728C196.2 116.728 199.032 117.256 201.528 118.312C204.024 119.368 206.088 120.888 207.72 122.872L201.672 128.344C200.52 127.096 199.272 126.168 197.928 125.56C196.616 124.92 195.144 124.6 193.512 124.6C192.072 124.6 190.76 124.824 189.576 125.272C188.392 125.72 187.384 126.376 186.552 127.24C185.72 128.072 185.064 129.08 184.584 130.264C184.136 131.416 183.912 132.728 183.912 134.2C183.912 135.608 184.136 136.904 184.584 138.088C185.064 139.272 185.72 140.296 186.552 141.16C187.384 141.992 188.376 142.648 189.528 143.128C190.712 143.576 192.008 143.8 193.416 143.8C194.824 143.8 196.2 143.576 197.544 143.128C198.888 142.648 200.248 141.848 201.624 140.728L206.952 147.4C205.032 148.776 202.808 149.832 200.28 150.568C197.752 151.304 195.272 151.672 192.84 151.672ZM198.552 146.152V133.48H206.952V147.4L198.552 146.152ZM228.913 151.432C226.577 151.432 224.625 150.952 223.057 149.992C221.521 149.032 220.369 147.56 219.601 145.576C218.833 143.592 218.449 141.048 218.449 137.944C218.449 134.904 218.849 132.392 219.649 130.408C220.481 128.424 221.681 126.952 223.249 125.992C224.817 125.032 226.705 124.552 228.913 124.552C231.281 124.552 233.425 125.096 235.345 126.184C237.297 127.272 238.833 128.824 239.953 130.84C241.105 132.824 241.681 135.192 241.681 137.944C241.681 140.728 241.105 143.128 239.953 145.144C238.833 147.128 237.297 148.68 235.345 149.8C233.425 150.888 231.281 151.432 228.913 151.432ZM212.545 151V115.384H221.665V129.352L221.185 137.944L221.233 146.536V151H212.545ZM226.993 144.184C228.017 144.184 228.929 143.944 229.729 143.464C230.561 142.984 231.217 142.28 231.697 141.352C232.209 140.392 232.465 139.256 232.465 137.944C232.465 136.632 232.209 135.528 231.697 134.632C231.217 133.704 230.561 133 229.729 132.52C228.929 132.04 228.017 131.8 226.993 131.8C225.969 131.8 225.041 132.04 224.209 132.52C223.409 133 222.753 133.704 222.241 134.632C221.761 135.528 221.521 136.632 221.521 137.944C221.521 139.256 221.761 140.392 222.241 141.352C222.753 142.28 223.409 142.984 224.209 143.464C225.041 143.944 225.969 144.184 226.993 144.184Z" fill="#7C4EFF"/>
<rect x="139" y="172" width="32" height="3" rx="1.5" fill="#D1C8FB"/>
<path d="M126.044 219.88V197.32H127.58V219.88H126.044ZM126.644 217.192C125.364 217.192 124.14 217 122.972 216.616C121.804 216.216 120.884 215.704 120.212 215.08L121.1 213.208C121.74 213.768 122.556 214.232 123.548 214.6C124.54 214.968 125.572 215.152 126.644 215.152C127.62 215.152 128.412 215.04 129.02 214.816C129.628 214.592 130.076 214.288 130.364 213.904C130.652 213.504 130.796 213.056 130.796 212.56C130.796 211.984 130.604 211.52 130.22 211.168C129.852 210.816 129.364 210.536 128.756 210.328C128.164 210.104 127.508 209.912 126.788 209.752C126.068 209.592 125.34 209.408 124.604 209.2C123.884 208.976 123.22 208.696 122.612 208.36C122.02 208.024 121.54 207.576 121.172 207.016C120.804 206.44 120.62 205.704 120.62 204.808C120.62 203.944 120.844 203.152 121.292 202.432C121.756 201.696 122.46 201.112 123.404 200.68C124.364 200.232 125.58 200.008 127.052 200.008C128.028 200.008 128.996 200.136 129.956 200.392C130.916 200.648 131.748 201.016 132.452 201.496L131.66 203.416C130.94 202.936 130.18 202.592 129.38 202.384C128.58 202.16 127.804 202.048 127.052 202.048C126.108 202.048 125.332 202.168 124.724 202.408C124.116 202.648 123.668 202.968 123.38 203.368C123.108 203.768 122.972 204.216 122.972 204.712C122.972 205.304 123.156 205.776 123.524 206.128C123.908 206.48 124.396 206.76 124.988 206.968C125.596 207.176 126.26 207.368 126.98 207.544C127.7 207.704 128.42 207.888 129.14 208.096C129.876 208.304 130.54 208.576 131.132 208.912C131.74 209.248 132.228 209.696 132.596 210.256C132.964 210.816 133.148 211.536 133.148 212.416C133.148 213.264 132.916 214.056 132.452 214.792C131.988 215.512 131.268 216.096 130.292 216.544C129.332 216.976 128.116 217.192 126.644 217.192ZM138.124 217V201.16L139.156 202.288H134.332V200.2H140.5V217H138.124ZM153.314 200.008C154.834 200.008 156.114 200.336 157.154 200.992C158.21 201.648 159.01 202.6 159.554 203.848C160.098 205.08 160.37 206.592 160.37 208.384C160.37 210.288 160.034 211.896 159.362 213.208C158.69 214.52 157.762 215.512 156.578 216.184C155.394 216.856 154.01 217.192 152.426 217.192C151.642 217.192 150.882 217.112 150.146 216.952C149.426 216.792 148.794 216.544 148.25 216.208L149.162 214.336C149.61 214.624 150.106 214.832 150.65 214.96C151.21 215.072 151.794 215.128 152.402 215.128C154.098 215.128 155.45 214.6 156.458 213.544C157.466 212.472 157.97 210.888 157.97 208.792C157.97 208.456 157.954 208.056 157.922 207.592C157.89 207.128 157.818 206.672 157.706 206.224L158.498 207.04C158.274 207.776 157.898 208.4 157.37 208.912C156.858 209.408 156.234 209.784 155.498 210.04C154.778 210.28 153.986 210.4 153.122 210.4C152.018 210.4 151.034 210.192 150.17 209.776C149.306 209.36 148.626 208.776 148.13 208.024C147.634 207.256 147.386 206.352 147.386 205.312C147.386 204.224 147.642 203.288 148.154 202.504C148.682 201.704 149.394 201.088 150.29 200.656C151.202 200.224 152.21 200.008 153.314 200.008ZM153.41 201.952C152.69 201.952 152.05 202.088 151.49 202.36C150.93 202.632 150.49 203.008 150.17 203.488C149.866 203.968 149.714 204.544 149.714 205.216C149.714 206.208 150.058 207 150.746 207.592C151.434 208.168 152.362 208.456 153.53 208.456C154.298 208.456 154.97 208.312 155.546 208.024C156.138 207.736 156.594 207.344 156.914 206.848C157.25 206.352 157.418 205.8 157.418 205.192C157.418 204.6 157.266 204.064 156.962 203.584C156.658 203.104 156.21 202.712 155.618 202.408C155.026 202.104 154.29 201.952 153.41 201.952ZM162.654 217V215.368L169.494 208.768C170.102 208.192 170.55 207.688 170.838 207.256C171.142 206.808 171.342 206.4 171.438 206.032C171.55 205.648 171.606 205.28 171.606 204.928C171.606 204.064 171.302 203.384 170.694 202.888C170.086 202.392 169.198 202.144 168.03 202.144C167.134 202.144 166.326 202.296 165.606 202.6C164.886 202.888 164.262 203.344 163.734 203.968L162.102 202.552C162.742 201.736 163.598 201.112 164.67 200.68C165.758 200.232 166.95 200.008 168.246 200.008C169.414 200.008 170.43 200.2 171.294 200.584C172.158 200.952 172.822 201.488 173.286 202.192C173.766 202.896 174.006 203.728 174.006 204.688C174.006 205.232 173.934 205.768 173.79 206.296C173.646 206.824 173.374 207.384 172.974 207.976C172.574 208.568 171.998 209.232 171.246 209.968L165.15 215.848L164.574 214.912H174.726V217H162.654ZM183.78 217.192C182.468 217.192 181.292 216.856 180.252 216.184C179.228 215.512 178.412 214.536 177.804 213.256C177.212 211.976 176.916 210.424 176.916 208.6C176.916 206.776 177.212 205.224 177.804 203.944C178.412 202.664 179.228 201.688 180.252 201.016C181.292 200.344 182.468 200.008 183.78 200.008C185.076 200.008 186.244 200.344 187.284 201.016C188.324 201.688 189.14 202.664 189.732 203.944C190.324 205.224 190.62 206.776 190.62 208.6C190.62 210.424 190.324 211.976 189.732 213.256C189.14 214.536 188.324 215.512 187.284 216.184C186.244 216.856 185.076 217.192 183.78 217.192ZM183.78 215.056C184.66 215.056 185.428 214.816 186.084 214.336C186.756 213.856 187.276 213.136 187.644 212.176C188.028 211.216 188.22 210.024 188.22 208.6C188.22 207.176 188.028 205.984 187.644 205.024C187.276 204.064 186.756 203.344 186.084 202.864C185.428 202.384 184.66 202.144 183.78 202.144C182.9 202.144 182.124 202.384 181.452 202.864C180.78 203.344 180.252 204.064 179.868 205.024C179.5 205.984 179.316 207.176 179.316 208.6C179.316 210.024 179.5 211.216 179.868 212.176C180.252 213.136 180.78 213.856 181.452 214.336C182.124 214.816 182.9 215.056 183.78 215.056Z" fill="#7C4EFF"/>
<g filter="url(#filter0_ii_785_476)">
<path d="M253.288 256C272.727 236.338 285.966 211.288 291.329 184.016C296.692 156.745 293.94 128.477 283.419 102.788C272.899 77.0985 255.083 55.1416 232.224 39.6935C209.366 24.2454 182.492 16 155 16C127.508 16 100.634 24.2454 77.7758 39.6935C54.9173 55.1416 37.1014 77.0985 26.5808 102.788C16.0602 128.477 13.3076 156.745 18.6709 184.016C24.0343 211.288 37.2727 236.338 56.7122 256" stroke="#D1C8FB" stroke-width="32" stroke-linecap="round"/>
</g>
<g filter="url(#filter1_ii_785_476)">
<path d="M232 39.6935C209.165 24.2454 182.319 16 154.856 16C127.393 16 100.546 24.2454 77.7117 39.6935C54.877 55.1416 37.0795 77.0985 26.5698 102.788C16.0602 128.477 13.3104 156.745 18.6681 184.016C24.0259 211.288 37.2507 236.338 56.67 256" stroke="#7C4EFF" stroke-width="32" stroke-linecap="round"/>
</g>
<defs>
<filter id="filter0_ii_785_476" x="-2" y="-2" width="314" height="276" filterUnits="userSpaceOnUse" color-interpolation-filters="sRGB">
<feFlood flood-opacity="0" result="BackgroundImageFix"/>
<feBlend mode="normal" in="SourceGraphic" in2="BackgroundImageFix" result="shape"/>
<feColorMatrix in="SourceAlpha" type="matrix" values="0 0 0 0 0 0 0 0 0 0 0 0 0 0 0 0 0 0 127 0" result="hardAlpha"/>
<feOffset dx="-2" dy="-2"/>
<feGaussianBlur stdDeviation="4"/>
<feComposite in2="hardAlpha" operator="arithmetic" k2="-1" k3="1"/>
<feColorMatrix type="matrix" values="0 0 0 0 0.903922 0 0 0 0 0.883333 0 0 0 0 1 0 0 0 1 0"/>
<feBlend mode="normal" in2="shape" result="effect1_innerShadow_785_476"/>
<feColorMatrix in="SourceAlpha" type="matrix" values="0 0 0 0 0 0 0 0 0 0 0 0 0 0 0 0 0 0 127 0" result="hardAlpha"/>
<feOffset dx="2" dy="2"/>
<feGaussianBlur stdDeviation="4"/>
<feComposite in2="hardAlpha" operator="arithmetic" k2="-1" k3="1"/>
<feColorMatrix type="matrix" values="0 0 0 0 0.0158536 0 0 0 0 0 0 0 0 0 0.1625 0 0 0 0.16 0"/>
<feBlend mode="normal" in2="effect1_innerShadow_785_476" result="effect2_innerShadow_785_476"/>
</filter>
<filter id="filter1_ii_785_476" x="-2" y="-2" width="252.002" height="276" filterUnits="userSpaceOnUse" color-interpolation-filters="sRGB">
<feFlood flood-opacity="0" result="BackgroundImageFix"/>
<feBlend mode="normal" in="SourceGraphic" in2="BackgroundImageFix" result="shape"/>
<feColorMatrix in="SourceAlpha" type="matrix" values="0 0 0 0 0 0 0 0 0 0 0 0 0 0 0 0 0 0 127 0" result="hardAlpha"/>
<feOffset dx="2" dy="2"/>
<feGaussianBlur stdDeviation="8"/>
<feComposite in2="hardAlpha" operator="arithmetic" k2="-1" k3="1"/>
<feColorMatrix type="matrix" values="0 0 0 0 1 0 0 0 0 1 0 0 0 0 1 0 0 0 0.3 0"/>
<feBlend mode="normal" in2="shape" result="effect1_innerShadow_785_476"/>
<feColorMatrix in="SourceAlpha" type="matrix" values="0 0 0 0 0 0 0 0 0 0 0 0 0 0 0 0 0 0 127 0" result="hardAlpha"/>
<feOffset dx="-2" dy="-2"/>
<feGaussianBlur stdDeviation="8"/>
<feComposite in2="hardAlpha" operator="arithmetic" k2="-1" k3="1"/>
<feColorMatrix type="matrix" values="0 0 0 0 0 0 0 0 0 0.0226667 0 0 0 0 0.0666667 0 0 0 0.3 0"/>
<feBlend mode="normal" in2="effect1_innerShadow_785_476" result="effect2_innerShadow_785_476"/>
</filter>
</defs>
</svg>
