<svg width="32" height="33" fill="none" xmlns="http://www.w3.org/2000/svg"><path d="M22 .805H10c-5.523 0-10 4.477-10 10v12c0 5.523 4.477 10 10 10h12c5.523 0 10-4.477 10-10v-12c0-5.523-4.477-10-10-10Z" fill="#485064"/><path d="M22.931 10.048c-1.275-.575-2.642-1-4.07-1.242a.062.062 0 0 0-.066.03c-.176.308-.37.71-.507 1.025a15.47 15.47 0 0 0-4.573 0 10.303 10.303 0 0 0-.514-1.025.065.065 0 0 0-.066-.03 16.644 16.644 0 0 0-4.07 1.242.058.058 0 0 0-.028.023c-2.592 3.811-3.303 7.53-2.954 11.2a.067.067 0 0 0 .026.047 16.692 16.692 0 0 0 4.994 2.484.065.065 0 0 0 .07-.023c.385-.517.728-1.062 1.022-1.635a.062.062 0 0 0-.035-.086 11.012 11.012 0 0 1-1.56-.732.063.063 0 0 1-.006-.105c.104-.077.21-.158.31-.239a.063.063 0 0 1 .064-.008c3.273 1.47 6.817 1.47 10.051 0a.063.063 0 0 1 .066.007c.1.082.205.163.31.24a.063.063 0 0 1-.005.105 10.32 10.32 0 0 1-1.561.73.062.062 0 0 0-.034.088c.3.573.643 1.118 1.02 1.635a.064.064 0 0 0 .071.023 16.638 16.638 0 0 0 5.002-2.484.063.063 0 0 0 .026-.045c.417-4.245-.699-7.933-2.957-11.201a.05.05 0 0 0-.026-.024Zm-10.248 8.988c-.985 0-1.797-.89-1.797-1.983 0-1.094.796-1.984 1.798-1.984 1.009 0 1.813.898 1.797 1.984 0 1.093-.796 1.983-1.797 1.983Zm6.646 0c-.985 0-1.797-.89-1.797-1.983 0-1.094.796-1.984 1.797-1.984 1.01 0 1.813.898 1.797 1.984 0 1.093-.788 1.983-1.797 1.983Z" fill="#F9FBFD"/></svg>