<svg width="137" height="31" fill="none" xmlns="http://www.w3.org/2000/svg"><g clip-path="url(#a)"><path fill-rule="evenodd" clip-rule="evenodd" d="M12.107 1.352c3.829.01 7.016 2.124 8.47 5.427a9.72 9.72 0 0 1 .76 2.844c.083.747.096 1.24.048 1.937-.234 3.377-2.003 6.331-4.787 8.431a.03.03 0 0 0 .004.05l.24.134c1.957 1.102 3.542 2.252 4.759 3.562.084.09.166.182.246.273a.033.033 0 0 0 .05 0c.08-.092.16-.184.244-.275 1.204-1.32 2.778-2.485 4.724-3.604a42.66 42.66 0 0 1 2.321-1.233c.13-.065.287.023.288.161l.02 4.287a.183.183 0 0 1-.125.173c-3 1.062-5.14 3.76-5.252 5.693-.006.097-.092.172-.195.173l-4.02.017c-.118 0-.217-.085-.225-.196-.134-1.879-1.875-3.71-5.08-5.515-.633-.356-1.298-.7-2.069-1.075l-.016-.008c-1.176-.607-2.926-1.249-5.145-2.853-2.598-2.057-4.255-4.885-4.51-8.114a9.64 9.64 0 0 1 .029-1.937 9.723 9.723 0 0 1 .731-2.851c1.422-3.316 4.588-5.457 8.417-5.5l.018-.001h.055ZM6.189 21.985c.92.687 2.07 1.332 3.452 1.933.206.09.224.34.033.453-2.696 1.58-4.158 3.152-4.279 4.771-.01.137-.14.244-.297.245l-3.881.015c-.17 0-.306-.12-.3-.268.063-1.882.936-3.6 2.45-5.148.695-.71 1.51-1.374 2.446-2.009a.331.331 0 0 1 .376.008Zm5.902-16.533c-2.027.022-3.646 1.117-4.424 2.932a5.828 5.828 0 0 0-.435 1.709 5.86 5.86 0 0 0-.021 1.244c.218 2.759 2.046 5.106 4.919 6.496l.006.003c.01.005.021.005.03 0l.008-.003c2.858-1.415 4.663-3.778 4.854-6.538.032-.46.025-.722-.033-1.245a5.826 5.826 0 0 0-.452-1.704c-.797-1.81-2.426-2.89-4.452-2.894Z" fill="#005FF9"/><path d="M41.668 20.991a.558.558 0 0 1-.577.568h-1.44a.567.567 0 0 1-.408-.166.55.55 0 0 1-.169-.402v-10.74a.558.558 0 0 1 .577-.584h1.357c.277 0 .5.139.656.403l3.08 5.626 3.082-5.63c.153-.26.376-.4.654-.4h1.34a.568.568 0 0 1 .593.584v10.741c0 .167-.058.31-.173.415a.604.604 0 0 1-.42.153h-1.441a.567.567 0 0 1-.408-.166.55.55 0 0 1-.168-.402v-6.399l-1.999 3.737c-.151.299-.394.458-.709.458h-.703c-.3 0-.545-.155-.724-.454l-2-3.74v6.398Zm15.595.733c-1.56 0-2.78-.393-3.652-1.184-.878-.794-1.313-1.99-1.313-3.574V10.25c0-.162.051-.303.155-.413a.558.558 0 0 1 .421-.17h1.541a.568.568 0 0 1 .593.584v6.715c0 .828.197 1.441.582 1.845.383.403.932.606 1.657.606s1.273-.203 1.657-.606c.384-.404.58-1.017.58-1.845V10.25a.568.568 0 0 1 .594-.584h1.541c.17 0 .314.057.421.17.104.11.156.252.156.415v6.715c0 1.584-.433 2.78-1.304 3.574-.867.79-2.08 1.184-3.629 1.184Zm14.681-2.488c.168 0 .313.055.425.165a.55.55 0 0 1 .169.402v1.188a.55.55 0 0 1-.169.402.587.587 0 0 1-.425.166h-7.287a.566.566 0 0 1-.408-.166.55.55 0 0 1-.169-.402V10.234c0-.167.058-.31.173-.415a.582.582 0 0 1 .404-.153h1.575c.167 0 .31.052.416.158.107.105.16.245.16.41v9.002h5.136Zm5.005 1.755a.558.558 0 0 1-.577.568h-1.574a.566.566 0 0 1-.408-.166.55.55 0 0 1-.169-.402v-8.919h-2.925a.568.568 0 0 1-.577-.584V10.25a.558.558 0 0 1 .577-.584h8.561a.568.568 0 0 1 .593.584v1.238a.568.568 0 0 1-.593.584H76.95v8.92Zm5.84.568a.566.566 0 0 1-.408-.166.55.55 0 0 1-.169-.402V10.234c0-.167.058-.31.173-.415a.582.582 0 0 1 .404-.153h1.608c.167 0 .31.052.416.158a.55.55 0 0 1 .16.41v10.757a.558.558 0 0 1-.577.568H82.79Zm12.033-2.323a.59.59 0 0 1 .426.165.55.55 0 0 1 .168.402v1.188a.548.548 0 0 1-.168.402.587.587 0 0 1-.426.166h-7.287a.567.567 0 0 1-.408-.166.55.55 0 0 1-.168-.402V10.234c0-.167.057-.31.173-.415a.583.583 0 0 1 .403-.153h1.575c.167 0 .31.052.416.158a.55.55 0 0 1 .16.41v9.002h5.136Zm6.616 2.488c-1.57 0-2.801-.393-3.685-1.183-.887-.793-1.352-1.965-1.398-3.503a44.948 44.948 0 0 1-.016-1.409c0-.629.005-1.103.016-1.424.047-1.507.522-2.673 1.431-3.488.906-.811 2.126-1.216 3.652-1.216 1.516 0 2.732.405 3.644 1.216.915.815 1.394 1.981 1.439 3.487.023.64.033 1.115.033 1.425 0 .3-.01.769-.033 1.408-.045 1.54-.513 2.711-1.406 3.505-.889.79-2.117 1.182-3.677 1.182Zm0-2.257c.704 0 1.25-.203 1.651-.608.402-.406.622-1.042.654-1.916.022-.658.034-1.102.034-1.33 0-.25-.012-.695-.034-1.33-.031-.863-.258-1.496-.67-1.907-.412-.412-.954-.617-1.635-.617-.692 0-1.239.206-1.651.617-.412.41-.632 1.043-.654 1.906-.01.317-.016.76-.016 1.33 0 .56.006 1.004.016 1.333.022.862.24 1.494.646 1.905.407.41.956.617 1.659.617Zm12.018-2.676a.564.564 0 0 1-.408-.166.546.546 0 0 1-.169-.402v-.907c0-.156.057-.293.169-.402.11-.11.25-.166.408-.166h4.02c.168 0 .313.056.425.166a.548.548 0 0 1 .168.402v1.749c0 .943-.214 1.768-.645 2.472-.43.706-1.042 1.248-1.832 1.626-.784.374-1.698.561-2.74.561-1.582 0-2.822-.404-3.712-1.217-.89-.814-1.363-1.946-1.421-3.387a50.912 50.912 0 0 1-.016-1.54c0-.706.005-1.22.016-1.54.047-1.409.523-2.523 1.432-3.331.905-.807 2.142-1.208 3.701-1.208 1.053 0 1.963.178 2.731.537.767.357 1.351.804 1.749 1.34.399.537.613 1.072.637 1.611 0 .144-.052.27-.152.37a.538.538 0 0 1-.391.149h-1.759a.569.569 0 0 1-.361-.104.743.743 0 0 1-.204-.288 2.137 2.137 0 0 0-.762-.962c-.358-.262-.852-.395-1.488-.395-.739 0-1.308.191-1.714.571-.403.378-.62.975-.641 1.804-.01.316-.017.798-.017 1.446 0 .636.007 1.118.017 1.447.022.85.24 1.464.65 1.852.412.39.983.588 1.722.588.753 0 1.348-.196 1.794-.584.44-.383.662-.962.662-1.752v-.34h-1.869Zm6.689 4.768a.566.566 0 0 1-.408-.166.55.55 0 0 1-.168-.402V10.234c0-.167.058-.31.173-.415a.58.58 0 0 1 .403-.153h1.609c.167 0 .31.052.417.158a.555.555 0 0 1 .159.41v10.757a.559.559 0 0 1-.576.568h-1.609Zm6.765-.568a.561.561 0 0 1-.578.568h-1.44a.57.57 0 0 1-.577-.568v-10.74a.558.558 0 0 1 .577-.584h1.307c.275 0 .493.125.632.358l4.47 6.835v-6.61c0-.162.052-.303.155-.413a.561.561 0 0 1 .422-.17h1.441a.569.569 0 0 1 .593.584v10.724a.569.569 0 0 1-.577.584h-1.323a.717.717 0 0 1-.648-.358l-4.454-6.68v6.47Z" fill="#1F1F1F"/></g><defs><clipPath id="a"><path fill="#fff" transform="translate(.477 .466)" d="M0 0h135.952v29.822H0z"/></clipPath></defs></svg>