<svg width="32" height="33" fill="none" xmlns="http://www.w3.org/2000/svg"><path d="M22 .805H10c-5.523 0-10 4.477-10 10v12c0 5.523 4.477 10 10 10h12c5.523 0 10-4.477 10-10v-12c0-5.523-4.477-10-10-10Z" fill="#485064"/><path fill-rule="evenodd" clip-rule="evenodd" d="M25.94 12.681c-.048-1.064-.218-1.79-.464-2.427a5.117 5.117 0 0 0-2.925-2.925c-.637-.245-1.363-.415-2.427-.464-1.064-.05-1.407-.06-4.124-.06-2.716 0-3.062.01-4.122.06-1.061.049-1.792.218-2.428.464a5.117 5.117 0 0 0-2.925 2.925c-.244.636-.416 1.363-.464 2.427-.047 1.064-.06 1.407-.06 4.124 0 2.716.011 3.061.06 4.122.05 1.06.217 1.792.464 2.428a5.117 5.117 0 0 0 2.925 2.924c.636.245 1.363.417 2.428.465 1.064.047 1.407.06 4.122.06s3.062-.012 4.124-.06c1.062-.05 1.79-.217 2.427-.465a5.117 5.117 0 0 0 2.925-2.924c.245-.636.416-1.364.464-2.428.048-1.064.06-1.407.06-4.122 0-2.716-.011-3.057-.06-4.124ZM16 21.939a5.135 5.135 0 1 1 0-10.271 5.135 5.135 0 0 1 0 10.27Zm5.339-9.273a1.2 1.2 0 1 1 0-2.4 1.2 1.2 0 0 1 0 2.4Zm-2.003 4.139a3.334 3.334 0 1 1-6.667 0 3.334 3.334 0 0 1 6.667 0Z" fill="#F9FBFD"/></svg>