<svg width="32" height="33" fill="none" xmlns="http://www.w3.org/2000/svg"><path d="M22 .805H10c-5.523 0-10 4.477-10 10v12c0 5.523 4.477 10 10 10h12c5.523 0 10-4.477 10-10v-12c0-5.523-4.477-10-10-10Z" fill="#485064"/><path d="M23.643 11.485A7.889 7.889 0 0 0 26 10.81a8.568 8.568 0 0 1-2.046 2.224c.007.185.01.37.01.555 0 5.674-4.127 12.216-11.675 12.216A11.247 11.247 0 0 1 6 23.877a8.006 8.006 0 0 0 6.075-1.773 3.992 3.992 0 0 1-2.373-.849 4.298 4.298 0 0 1-1.46-2.134 3.843 3.843 0 0 0 1.852-.073 4.077 4.077 0 0 1-2.363-1.49 4.419 4.419 0 0 1-.928-2.719v-.055c.57.332 1.207.517 1.859.538a4.301 4.301 0 0 1-1.72-2.603 4.468 4.468 0 0 1 .45-3.129 11.763 11.763 0 0 0 3.773 3.184 11.247 11.247 0 0 0 4.684 1.302 4.48 4.48 0 0 1 .259-2.747 4.225 4.225 0 0 1 1.803-2.016 3.95 3.95 0 0 1 2.603-.451c.892.153 1.71.61 2.329 1.299a8 8 0 0 0 2.605-1.047 4.276 4.276 0 0 1-1.805 2.371Z" fill="#F9FBFD"/></svg>