<svg width="109" height="37" fill="none" xmlns="http://www.w3.org/2000/svg"><path d="M60.44 16.537v5.084a2.622 2.622 0 0 0 2.626 2.619 2.622 2.622 0 0 0 2.627-2.62v-2.464a2.622 2.622 0 0 0-2.627-2.62H60.44Zm5.253-3.417V6.984h4.327v14.79h-.008c-.162 3.261-2.864 5.855-6.173 5.855h-1.545c-3.415 0-6.181-2.76-6.181-6.163v-2.464c0-3.404 2.768-6.162 6.18-6.162h1.546c.645 0 1.269.097 1.854.28Zm15.454 3.417v5.084a2.622 2.622 0 0 0 2.627 2.619 2.622 2.622 0 0 0 2.627-2.62v-2.464a2.622 2.622 0 0 0-2.627-2.62h-2.627Zm9.551 1.848h.031v3.081c0 .44-.047.87-.136 1.284-.923 6.42-6.462 11.35-13.154 11.35v-4.313h8.964v-2.156h-3.4c-3.414 0-6.18-2.76-6.18-6.163v-2.466c0-3.404 2.768-6.162 6.18-6.162h1.546c3.204 0 5.84 2.431 6.15 5.545Zm5.594-1.848v5.084a2.622 2.622 0 0 0 2.627 2.619 2.622 2.622 0 0 0 2.627-2.62v-2.464a2.622 2.622 0 0 0-2.627-2.62h-2.627Zm-4.326 4.93v-2.465c0-3.404 2.768-6.162 6.18-6.162h1.546c3.414 0 6.181 2.76 6.181 6.162v2.464c0 3.404-2.769 6.163-6.181 6.163h-1.545c-3.413.002-6.181-2.759-6.181-6.163ZM71.258 12.84h4.326v14.79h-4.326V12.84Zm-32.765-1.541a2.16 2.16 0 0 1-2.163-2.157c0-1.19.97-2.157 2.163-2.157 1.194 0 2.163.967 2.163 2.157a2.16 2.16 0 0 1-2.163 2.157Zm34.928 0a2.16 2.16 0 0 1-2.163-2.157c0-1.19.969-2.157 2.163-2.157a2.16 2.16 0 0 1 2.163 2.157c0 1.19-.97 2.157-2.163 2.157Zm-37.091 1.54h4.327v14.792H36.33V12.839Zm12.364 4.314H46.22v10.478h-4.326v-8.937c0-3.234 2.628-5.854 5.871-5.854h.928c3.414 0 6.18 2.76 6.18 6.162v8.629h-4.326V19a1.85 1.85 0 0 0-1.855-1.848Z" fill="url(#a)"/><path d="M2.95 3.903v28.35h20.4c4.439 0 8.037-3.588 8.037-8.014V3.904H2.95Zm8.54 11.21a3.6 3.6 0 0 1-3.594-3.603 3.6 3.6 0 0 1 3.594-3.604 3.6 3.6 0 0 1 3.595 3.604 3.6 3.6 0 0 1-3.595 3.604Zm14.952 7.894c0 2.606-1.937 4.622-4.327 4.622-2.39 0-4.326-2.018-4.326-4.622V14.38h4.326c2.39 0 4.327 2.018 4.327 4.622v4.005Z" fill="url(#b)"/><defs><linearGradient id="a" x1="30.669" y1="20.542" x2="98.999" y2="20.542" gradientUnits="userSpaceOnUse"><stop stop-color="#5D0B99"/><stop offset="1" stop-color="#871BD7"/></linearGradient><linearGradient id="b" x1=".636" y1="18.077" x2="28.576" y2="18.077" gradientUnits="userSpaceOnUse"><stop stop-color="#5D0B99"/><stop offset="1" stop-color="#871BD7"/></linearGradient></defs></svg>