<svg width="139" height="22" fill="none" xmlns="http://www.w3.org/2000/svg"><g clip-path="url(#a)"><path d="M18.96.556H3.742A3.043 3.043 0 0 0 .7 3.599v15.217a3.043 3.043 0 0 0 3.044 3.044H18.96a3.043 3.043 0 0 0 3.043-3.044V3.6A3.043 3.043 0 0 0 18.96.556Z" fill="#1E4DFF"/><path opacity=".8" d="M11.31 14.027 5.627 9.663V3.98l5.683 4.365v5.683Z" fill="#fff"/><path opacity=".45" d="m17.378 18.436-4.603-3.68V9.072l4.603 3.68v5.684Z" fill="#fff"/><path opacity=".65" d="m11.312 14.027 5.684-4.364V3.98l-5.684 4.365v5.683Z" fill="#fff"/><path opacity=".6" d="m5.627 18.386 5.683-4.363V8.339l-5.683 4.364v5.683Z" fill="#fff"/><path opacity=".4" d="m13.013 12.719 2.327-1.787-2.283-1.828-.044 3.615Z" fill="#fff"/><path opacity=".2" d="m11.312 11.73 5.684-4.365v-.647l-5.684 4.363v.649Z" fill="#fff"/><path d="m11.312 14.028-3.704-2.845 3.704-2.84v5.685Z" fill="#fff"/><path opacity=".4" d="m5.627 16.106 5.683-4.364v-.66l-5.683 4.364v.66Z" fill="#fff"/><path d="m31.664 17.024-1.194 2.953h-3.541L33.53 4.772h3.538l6.495 15.205h-3.669L38.7 17.024h-7.037Zm3.54-8.667-2.41 5.908h4.799l-2.39-5.908Zm20.894 11.62h-3.323v-1.716c-.827 1.194-2.087 1.847-3.694 1.847-3.323 0-5.516-2.412-5.516-6.017 0-3.562 2.172-5.934 5.43-5.934 1.65 0 2.932.65 3.78 1.845V3.861h3.323v16.116Zm-4.045-5.799c0-1.911-1.194-3.237-2.91-3.237-1.717 0-2.933 1.347-2.955 3.237.022 1.911 1.195 3.237 2.954 3.237 1.717 0 2.911-1.326 2.911-3.237Zm15.904-4.735-1.151 2.282c-1.283-.718-2.586-1.126-3.566-1.126-.782 0-1.347.26-1.347.869 0 1.76 6.168.869 6.147 4.996 0 2.389-2.106 3.652-4.757 3.652-1.89 0-3.736-.565-5.062-1.63l1.087-2.258c1.217.933 2.78 1.455 4.062 1.455.847 0 1.477-.283 1.477-.913 0-1.867-6.06-.868-6.06-4.973 0-2.412 2.063-3.652 4.604-3.652a8.718 8.718 0 0 1 4.566 1.298Zm8.841-4.671c3.867 0 6.087 1.912 6.087 5.28 0 3.54-2.216 5.58-6.087 5.58H73.78v4.345h-3.431V4.772h6.45Zm-3.019 7.994h2.846c1.911 0 2.998-.869 2.998-2.607 0-1.693-1.087-2.541-2.998-2.541h-2.846v5.148Zm22.764 1.368c0 3.562-2.52 5.974-6.256 5.974s-6.277-2.412-6.277-5.974c0-3.563 2.515-5.952 6.277-5.952 3.761 0 6.256 2.368 6.256 5.952Zm-9.167.044c0 1.911 1.173 3.214 2.91 3.214 1.739 0 2.912-1.303 2.912-3.214s-1.195-3.216-2.911-3.216c-1.717 0-2.911 1.31-2.911 3.216Zm21.957 5.799-2.52-7.704-2.497 7.71h-3.337L96.692 8.316l3.41-.021 2.607 8.37 2.519-8.362h3.28l2.563 8.369 2.563-8.362h3.302l-4.261 11.685-3.342-.018Zm19.443-4.822h-8.385c.391 1.478 1.522 2.347 3.019 2.347a4.14 4.14 0 0 0 2.956-1.24l1.759 1.783c-1.174 1.302-2.892 2.063-4.996 2.063-3.736 0-6.104-2.389-6.104-5.934 0-3.607 2.455-5.996 6.017-5.996 4.113.005 6.017 2.725 5.734 6.977Zm-3.127-1.969c-.044-1.541-1.044-2.541-2.587-2.541-1.478 0-2.476 1-2.739 2.541h5.326Zm8.687-2.788c.803-1.433 2.13-2.215 3.866-2.237v3.15c-2.39-.217-3.866 1.065-3.866 3.044v5.63h-3.348V8.292h3.348v2.106Z" fill="#1F2542"/></g><defs><clipPath id="a"><path fill="#fff" transform="translate(.698 .556)" d="M0 0h137.504v21.304H0z"/></clipPath></defs></svg>