<svg width="108" height="28" fill="none" xmlns="http://www.w3.org/2000/svg"><g clip-path="url(#a)" fill="#36364F"><path d="M41.535 21.894a.526.526 0 0 1-.387-.16.526.526 0 0 1-.16-.386V6.52a.48.48 0 0 1 .16-.386.526.526 0 0 1 .386-.16h2.115a.48.48 0 0 1 .387.16c.106.09.16.22.16.386v12.666h7.208c.167 0 .303.054.41.16a.556.556 0 0 1 .158.409v1.592a.554.554 0 0 1-.159.41.607.607 0 0 1-.41.136h-9.868Zm18.563.227c-2.063 0-3.67-.523-4.822-1.57-1.152-1.045-1.758-2.599-1.819-4.66a60.639 60.639 0 0 1-.023-1.934c0-.864.008-1.516.023-1.955.06-2.017.682-3.563 1.865-4.64 1.182-1.076 2.774-1.614 4.775-1.614 2.002 0 3.593.538 4.776 1.615 1.197 1.076 1.827 2.622 1.887 4.639.03.879.046 1.53.046 1.955 0 .41-.016 1.054-.046 1.933-.076 2.062-.69 3.616-1.842 4.662-1.152 1.046-2.76 1.569-4.82 1.569Zm0-2.615c1.015 0 1.826-.303 2.433-.91.606-.621.932-1.561.977-2.82.03-.91.046-1.523.046-1.841 0-.35-.015-.963-.046-1.843-.045-1.258-.371-2.19-.977-2.797-.607-.621-1.418-.932-2.434-.932-1 0-1.804.31-2.41.932-.607.607-.933 1.54-.978 2.797a56.86 56.86 0 0 0-.023 1.842c0 .774.008 1.388.023 1.843.045 1.258.364 2.198.955 2.82.606.606 1.417.909 2.433.909Zm15.879 2.615c-2.077 0-3.7-.538-4.866-1.614-1.153-1.077-1.767-2.578-1.842-4.503a68.517 68.517 0 0 1-.023-2.115c0-.97.007-1.675.023-2.115.075-1.88.697-3.35 1.864-4.411 1.183-1.077 2.797-1.615 4.844-1.615 1.395 0 2.592.235 3.593.705 1 .47 1.758 1.061 2.274 1.774.516.697.789 1.387.819 2.07v.044a.437.437 0 0 1-.137.319.515.515 0 0 1-.34.114h-2.343c-.152 0-.266-.023-.341-.069a.782.782 0 0 1-.205-.295c-.212-.561-.584-1.039-1.114-1.433-.53-.41-1.266-.614-2.206-.614-1.061 0-1.895.288-2.501.864-.592.576-.91 1.463-.956 2.66-.015.44-.022 1.108-.022 2.002 0 .88.007 1.546.022 2.001.092 2.41 1.259 3.616 3.502 3.616 1.077 0 1.94-.288 2.593-.864.652-.591.978-1.463.978-2.615v-.705h-2.775a.555.555 0 0 1-.409-.16.607.607 0 0 1-.136-.409v-1.205a.61.61 0 0 1 .136-.41.555.555 0 0 1 .41-.159h5.434c.167 0 .296.054.387.16.106.106.16.242.16.409v2.388c0 1.258-.281 2.357-.842 3.297-.546.925-1.334 1.637-2.365 2.138-1.031.5-2.236.75-3.616.75Zm10.283-.227a.526.526 0 0 1-.386-.16.525.525 0 0 1-.16-.386V6.52a.48.48 0 0 1 .16-.386.526.526 0 0 1 .386-.16h2.138a.48.48 0 0 1 .386.16.48.48 0 0 1 .16.386v14.827c0 .152-.053.28-.16.386a.482.482 0 0 1-.386.16H86.26Zm6.796 0a.526.526 0 0 1-.387-.16.525.525 0 0 1-.16-.386V6.544a.61.61 0 0 1 .137-.41.555.555 0 0 1 .41-.159h1.75c.183 0 .319.038.41.114.09.06.175.144.25.25l6.549 10.188V6.544a.61.61 0 0 1 .137-.41.553.553 0 0 1 .409-.159h1.91c.167 0 .303.053.41.16a.554.554 0 0 1 .159.409v14.781a.554.554 0 0 1-.159.41.528.528 0 0 1-.387.159h-1.774c-.257 0-.477-.122-.659-.364l-6.527-9.96v9.778a.554.554 0 0 1-.159.41.608.608 0 0 1-.41.136h-1.91Zm-85.543.699c-2.983-.631-5.251-2.425-6.304-4.986-.84-2.066-.877-4.75-.075-6.743.978-2.474 3.359-4.528 6.041-5.233 1.253-.334 3.986-.297 5.39.074 1.203.322 2.719 1.052 3.408 1.658.514.458 6.442 7.126 7.157 8.067.639.84 2.168 2.363 2.782 2.783 1.63 1.114 3.046 1.373 4.663.879 4.424-1.361 4.787-7.758.551-9.824-.616-.294-.822-.444-1.53-.493a9.83 9.83 0 0 0-.676-.02c-.343 0-.605.01-.819.032-.591.06-.82.209-1.4.481-1.54.718-2.556 2.091-2.857 3.897-.088.483-.113 1.09-.075 1.349.038.272.05.482.025.482-.075 0-3.346-3.6-3.409-3.76-.188-.47 1.065-2.413 2.23-3.477 1.906-1.745 4.262-2.536 6.994-2.363 2.494.148 4.65 1.126 6.167 2.796 3.923 4.28 2.657 11.023-2.557 13.621-1.341.669-2.494.916-4.299.916-1.842 0-2.72-.186-4.136-.854-1.617-.767-2.018-1.15-6.467-6.322-4.5-5.22-5.101-5.815-6.53-6.371-.677-.26-.99-.31-2.168-.31-1.303 0-1.429.025-2.206.396-1.028.508-1.88 1.373-2.406 2.487-.376.78-.401.903-.401 2.252 0 1.67.138 2.177.827 3.204.601.903 1.63 1.67 2.62 1.955 1.453.445 4.01.136 4.937-.594.326-.247.339-.297.301-1.398l-.037-1.126-1.905-.037-1.918-.037V12.77h2.732l2.72.012 1.04 1.212 1.028 1.225v4.912l-.727.52c-2.419 1.769-5.89 2.536-8.71 1.942Z"/></g><defs><clipPath id="a"><path fill="#fff" transform="translate(.555 .859)" d="M0 0h106.88v26.151H0z"/></clipPath></defs></svg>