<svg width="32" height="33" fill="none" xmlns="http://www.w3.org/2000/svg"><path d="M22 .805H10c-5.523 0-10 4.477-10 10v12c0 5.523 4.477 10 10 10h12c5.523 0 10-4.477 10-10v-12c0-5.523-4.477-10-10-10Z" fill="#485064"/><path d="M25.823 9.821a.597.597 0 0 0 .134-.647.586.586 0 0 0-.543-.37h-5.857a.59.59 0 0 0-.586.593v2.85l-2.193 5.746-4.021-8.843a.586.586 0 0 0-.532-.345H6.739a.586.586 0 0 0-.53.338.598.598 0 0 0 .076.629l2.48 3.07v7.581l-2.641 3.425a.598.598 0 0 0-.064.624.585.585 0 0 0 .526.333h5.53a.585.585 0 0 0 .526-.333.598.598 0 0 0-.064-.624l-2.641-3.425v-5.266l4.572 9.319a.585.585 0 0 0 1.071-.05l3.391-8.888v6.266l-1.576 2.044a.598.598 0 0 0-.064.624.586.586 0 0 0 .526.333h7.316a.586.586 0 0 0 .527-.333.598.598 0 0 0-.065-.624l-1.576-2.044V11.56l1.764-1.739Z" fill="#F9FBFD"/></svg>