<svg width="47" height="40" fill="none" xmlns="http://www.w3.org/2000/svg"><path d="M43.06 39.666a4.123 4.123 0 0 1-2.045-.535c-6.552-3.693-11.97-8.896-15.73-15.106-3.759-6.21-5.733-13.217-5.73-20.344 0-.974.416-1.908 1.156-2.597A4.104 4.104 0 0 1 23.503.008c1.047 0 2.052.387 2.792 1.076.74.689 1.156 1.623 1.156 2.597 0 12.02 6.607 22.928 17.664 29.189a3.752 3.752 0 0 1 1.613 1.79c.314.744.358 1.564.126 2.333a3.677 3.677 0 0 1-1.411 1.932 4.145 4.145 0 0 1-2.379.75l-.004-.008Z" fill="url(#a)"/><path d="M3.936 39.666a4.144 4.144 0 0 1-2.378-.75 3.676 3.676 0 0 1-1.411-1.931 3.432 3.432 0 0 1 .126-2.333 3.752 3.752 0 0 1 1.612-1.79C12.95 26.606 19.55 15.698 19.55 3.672c0-.973.416-1.907 1.157-2.596A4.104 4.104 0 0 1 23.498 0c1.047 0 2.051.387 2.792 1.076.74.689 1.156 1.623 1.156 2.597.004 7.127-1.97 14.135-5.729 20.346-3.76 6.21-9.178 11.413-15.732 15.106a4.132 4.132 0 0 1-2.049.541Z" fill="url(#b)"/><path d="M3.964 39.83a4.118 4.118 0 0 1-2.416-.784 3.718 3.718 0 0 1-1.403-2.011 3.524 3.524 0 0 1 .195-2.4 3.816 3.816 0 0 1 1.712-1.786c6.595-3.41 13.998-5.196 21.522-5.196 7.524 0 14.927 1.787 21.522 5.196a3.756 3.756 0 0 1 1.757 2.223c.26.926.131 1.911-.36 2.75a3.915 3.915 0 0 1-2.276 1.757 4.183 4.183 0 0 1-2.935-.21c-5.427-2.802-11.518-4.27-17.708-4.27-6.19 0-12.28 1.468-17.708 4.27a4.112 4.112 0 0 1-1.902.462Z" fill="url(#c)"/><defs><linearGradient id="a" x1="44.284" y1="37.801" x2="26.582" y2="22.24" gradientUnits="userSpaceOnUse"><stop stop-color="#5F56AA"/><stop offset="1" stop-color="#A591F8"/></linearGradient><linearGradient id="b" x1="24.229" y1=".976" x2="5.837" y2="36.326" gradientUnits="userSpaceOnUse"><stop stop-color="#5F56AA"/><stop offset="1" stop-color="#A591F8"/></linearGradient><linearGradient id="c" x1="-4.546" y1="37.546" x2="41.791" y2="35.002" gradientUnits="userSpaceOnUse"><stop stop-color="#5F56AA"/><stop offset="1" stop-color="#A591F8"/></linearGradient></defs></svg>