<svg width="32" height="33" fill="none" xmlns="http://www.w3.org/2000/svg"><path d="M22 .805H10c-5.523 0-10 4.477-10 10v12c0 5.523 4.477 10 10 10h12c5.523 0 10-4.477 10-10v-12c0-5.523-4.477-10-10-10Z" fill="#485064"/><path d="M24.99 10.006c-.05.736-.459 3.311-.87 6.097l-1.276 8.252s-.103 1.204-.972 1.418c-.868.215-2.3-.736-2.557-.946-.205-.158-3.835-2.523-5.164-3.678-.358-.316-.767-.947.052-1.683a211.92 211.92 0 0 0 5.369-5.256c.613-.63 1.226-2.102-1.33-.315l-7.21 4.993s-.817.526-2.351.052a108.259 108.259 0 0 1-3.324-1.103s-1.227-.788.87-1.63l11.912-5.045c1.172-.526 5.164-2.207 5.164-2.207s1.844-.736 1.688 1.05Z" fill="#F9FBFD"/></svg>