<svg width="167" height="28" fill="none" xmlns="http://www.w3.org/2000/svg"><path d="M39.092 6.44h4.771c2.282 0 4.01.577 5.186 1.73 1.175 1.155 1.763 2.804 1.763 4.945v1.161c0 2.115-.595 3.757-1.784 4.924-1.19 1.168-2.911 1.752-5.165 1.752h-4.771V6.44Zm2.489 2.197v10.117h2.282c1.438 0 2.52-.366 3.246-1.098.727-.733 1.09-1.86 1.09-3.38v-1.16c0-1.506-.367-2.63-1.1-3.37-.733-.738-1.812-1.109-3.236-1.109H41.58Zm15.865 12.502c-1.563 0-2.783-.443-3.661-1.327-.879-.885-1.318-2.122-1.318-3.711v-.664c0-.788.114-1.492.343-2.114.228-.622.56-1.151.995-1.586a4.342 4.342 0 0 1 1.566-.995c.609-.228 1.3-.343 2.075-.343 1.562 0 2.783.443 3.661 1.327.878.885 1.318 2.122 1.318 3.711v.664c0 .788-.114 1.492-.343 2.114a4.301 4.301 0 0 1-.995 1.586 4.327 4.327 0 0 1-1.577.995c-.615.228-1.304.343-2.064.343Zm0-2.24c.788 0 1.393-.228 1.815-.684.422-.456.633-1.16.633-2.114v-.664c0-.94-.218-1.641-.654-2.104-.435-.463-1.034-.694-1.794-.694-.788 0-1.393.227-1.815.684-.422.456-.633 1.16-.633 2.114v.664c0 .94.218 1.64.654 2.104.435.463 1.033.694 1.794.694Zm7.933 1.172c-.588-.587-.882-1.434-.882-2.54V6.44h2.406v10.843c0 .538.118.933.353 1.181.235.25.595.374 1.08.374h.518v2.114h-.955c-1.092 0-1.932-.294-2.52-.88Zm10.468 1.068c-1.3 0-2.31-.408-3.029-1.224v5.183h-2.406V10.586h1.887l.229 1.41c.36-.54.819-.94 1.379-1.203.56-.262 1.206-.394 1.94-.394.594 0 1.144.107 1.65.321a3.48 3.48 0 0 1 1.295.954c.36.422.643.947.85 1.576.208.63.312 1.358.312 2.187v.664c0 .829-.104 1.554-.311 2.176-.208.622-.495 1.148-.861 1.576a3.51 3.51 0 0 1-1.297.964 4.095 4.095 0 0 1-1.638.322Zm-.726-2.24c.732 0 1.3-.22 1.7-.663.401-.442.602-1.154.602-2.135v-.664c0-.954-.207-1.658-.622-2.115-.415-.455-.975-.684-1.68-.684-.664 0-1.207.228-1.629.684-.422.457-.646 1.12-.674 1.99v.789c0 .912.218 1.606.653 2.083.436.477.986.715 1.65.715ZM82.025 6.44h2.407v5.038c.69-.719 1.652-1.079 2.883-1.079 1.272 0 2.264.377 2.977 1.13.712.754 1.068 1.89 1.068 3.411v6.012h-2.406V14.94c0-.76-.183-1.334-.55-1.72-.367-.388-.867-.581-1.504-.581-.747 0-1.338.2-1.773.601-.436.401-.668.933-.695 1.596v6.116h-2.407V6.44Zm13.242 2.902c-.443 0-.813-.148-1.11-.446a1.504 1.504 0 0 1-.446-1.109c0-.442.148-.812.446-1.109a1.509 1.509 0 0 1 1.11-.446c.428 0 .795.149 1.1.446.303.297.455.667.455 1.11 0 .442-.152.811-.456 1.108a1.515 1.515 0 0 1-1.1.446Zm-1.203 1.244h2.406v10.366h-2.406V10.586Zm5.206 0h1.888l.186 1.16c.774-.897 1.846-1.347 3.215-1.347 1.272 0 2.265.377 2.977 1.13.712.754 1.068 1.89 1.068 3.41v6.013h-2.406V14.94c0-.76-.184-1.334-.551-1.721-.365-.387-.867-.58-1.502-.58-.747 0-1.339.2-1.775.6-.436.402-.667.934-.694 1.597v6.116H99.27V10.586Zm18.042-2.819h-.955c-1.577 0-2.365.83-2.365 2.488v2.695c0 .622-.093 1.178-.28 1.669-.186.491-.598.874-1.234 1.15.318.153.577.325.778.52.2.193.356.41.466.652.111.242.183.5.218.777s.052.567.052.87v2.696c0 1.659.788 2.488 2.365 2.488h.955v1.327h-.955c-2.544 0-3.817-1.272-3.817-3.815v-2.695c0-.733-.162-1.261-.487-1.586a2.055 2.055 0 0 0-1.172-.591v-1.285a2.052 2.052 0 0 0 1.172-.591c.325-.325.487-.854.487-1.587v-2.694c0-2.543 1.273-3.815 3.817-3.815h.955v1.327Zm5.085 13.33c-1.037 0-1.833-.266-2.386-.798-.553-.532-.83-1.268-.83-2.208 0-.498.08-.95.239-1.358a2.38 2.38 0 0 1 .768-1.026c.352-.277.805-.491 1.359-.643.552-.152 1.217-.228 1.991-.228h2.365v-.933c0-.746-.184-1.296-.549-1.648-.368-.352-.973-.53-1.816-.53-.761 0-1.331.15-1.712.447-.379.298-.598.701-.653 1.213H119.7a3.33 3.33 0 0 1 .29-1.182c.166-.36.408-.67.727-.933a3.415 3.415 0 0 1 1.182-.611c.47-.145 1.016-.218 1.639-.218 1.231 0 2.16.304 2.79.912.629.608.944 1.459.944 2.55v7.05h-1.059l-.207-1.95a3.888 3.888 0 0 1-1.482 1.545c-.63.366-1.339.549-2.127.549Zm.103-1.285a3.508 3.508 0 0 0 2.417-.964c.311-.297.553-.643.727-1.037a3.1 3.1 0 0 0 .258-1.254v-.477h-2.364c-1.066 0-1.823.187-2.272.56a1.8 1.8 0 0 0-.674 1.451c0 .525.162.943.488 1.254.325.31.798.467 1.42.467Zm8.193-9.226h1.057l.166 1.7a3.564 3.564 0 0 1 1.401-1.368c.587-.318 1.268-.477 2.043-.477 1.189 0 2.126.36 2.811 1.078.685.719 1.026 1.79 1.026 3.213v6.22h-1.369v-6.22c0-1.008-.235-1.761-.705-2.26-.47-.497-1.127-.746-1.971-.746-.912 0-1.648.263-2.208.788-.561.526-.855 1.223-.882 2.094v6.344h-1.369V10.586Zm10.474 0h1.867V7.685h1.369v2.901h2.78v1.245h-2.78v6.22c0 1.105.512 1.657 1.535 1.657h1.453v1.245h-1.619c-.898 0-1.58-.232-2.043-.695-.463-.463-.695-1.144-.695-2.042v-6.385h-1.867v-1.245Zm12.177 10.366-4.295-10.366h1.536l3.505 8.666 3.257-8.666h1.452L153.198 25.1h-1.452l1.598-4.147Zm6.78 2.819h.954c1.577 0 2.365-.829 2.365-2.488v-2.695c0-.622.093-1.178.28-1.669.186-.49.598-.874 1.234-1.15a2.889 2.889 0 0 1-.777-.519 2.114 2.114 0 0 1-.467-.653 2.614 2.614 0 0 1-.217-.777 6.927 6.927 0 0 1-.053-.87v-2.695c0-1.66-.788-2.488-2.365-2.488h-.954V6.44h.954c2.545 0 3.818 1.272 3.818 3.815v2.694c0 .733.162 1.262.487 1.587a2.04 2.04 0 0 0 1.171.59v1.286c-.455.07-.847.266-1.171.59-.325.325-.487.854-.487 1.587v2.695c0 2.542-1.273 3.814-3.818 3.814h-.954v-1.327Z" fill="#28334A"/><path d="M.554 13.696C.554 0 .554 0 14.26 0c13.704 0 13.704 0 13.704 13.696s0 13.696-13.704 13.696c-13.705 0-13.705 0-13.705-13.696Z" fill="url(#a)"/><path d="M19.89 13.117v1.166c0 2.108-.596 3.75-1.789 4.924-1.184 1.166-2.904 1.745-5.16 1.745H9.129c1.003-.432 1.504-1.365 1.504-2.799v-2.176c0-.596.13-1.02.39-1.287.267-.26.578-.415.95-.476v-1.036a1.724 1.724 0 0 1-.95-.475c-.26-.268-.39-.69-.39-1.287V9.24c0-1.434-.501-2.367-1.504-2.799h3.812c2.282 0 4.01.579 5.186 1.737 1.176 1.148 1.763 2.798 1.763 4.94Z" fill="#fff"/><defs><linearGradient id="a" x1="14.259" y1="0" x2="14.259" y2="27.392" gradientUnits="userSpaceOnUse"><stop offset=".006" stop-color="#B645EE"/><stop offset="1" stop-color="#9B26B6"/></linearGradient></defs></svg>